<?xml version="1.0" encoding="UTF-8" standalone="no"?>
<!-- Created with Inkscape (http://www.inkscape.org/) -->

<svg
   width="272.74359mm"
   height="357.42606mm"
   viewBox="0 0 272.74359 357.42606"
   version="1.1"
   id="svg40101"
   inkscape:version="1.1.2 (b8e25be833, 2022-02-05)"
   sodipodi:docname="Edit-Small-logo-4(SVG).svg"
   xmlns:inkscape="http://www.inkscape.org/namespaces/inkscape"
   xmlns:sodipodi="http://sodipodi.sourceforge.net/DTD/sodipodi-0.dtd"
   xmlns="http://www.w3.org/2000/svg"
   xmlns:svg="http://www.w3.org/2000/svg">
  <sodipodi:namedview
     id="namedview40103"
     pagecolor="#ffffff"
     bordercolor="#666666"
     borderopacity="1.0"
     inkscape:pageshadow="2"
     inkscape:pageopacity="0.0"
     inkscape:pagecheckerboard="0"
     inkscape:document-units="mm"
     showgrid="false"
     fit-margin-top="0"
     fit-margin-left="0"
     fit-margin-right="0"
     fit-margin-bottom="0"
     inkscape:zoom="0.20222363"
     inkscape:cx="170.60321"
     inkscape:cy="534.06223"
     inkscape:window-width="1366"
     inkscape:window-height="705"
     inkscape:window-x="-8"
     inkscape:window-y="-8"
     inkscape:window-maximized="1"
     inkscape:current-layer="layer1" />
  <defs
     id="defs40098">
    <clipPath
       clipPathUnits="userSpaceOnUse"
       id="clipPath369">
      <path
         d="M 0,0 H 1311 V 334 H 0 Z"
         id="path367" />
    </clipPath>
    <rect
       x="1799.9875"
       y="-158.24066"
       width="2630.751"
       height="850.54352"
       id="rect34369" />
    <rect
       x="2067.0186"
       y="662.63275"
       width="49.450207"
       height="296.70123"
       id="rect29455" />
    <rect
       x="1720.8671"
       y="628.01764"
       width="741.75305"
       height="909.88379"
       id="rect24477" />
    <rect
       x="1770.3173"
       y="746.69812"
       width="588.45746"
       height="623.07257"
       id="rect22095" />
    <rect
       x="1772.7899"
       y="892.57617"
       width="398.07416"
       height="224.99843"
       id="rect6019" />
    <clipPath
       clipPathUnits="userSpaceOnUse"
       id="clipPath2287">
      <path
         d="M 0,2000 H 2000 V 0 H 0 Z"
         id="path2285" />
    </clipPath>
  </defs>
  <g
     inkscape:label="Layer 1"
     inkscape:groupmode="layer"
     id="layer1"
     transform="translate(23.149788,22.767305)">
    <text
       xml:space="preserve"
       transform="matrix(0.26458333,0,0,0.26458333,259.10152,-42.26135)"
       id="text6017"
       style="font-style:normal;font-weight:normal;font-size:266.667px;line-height:1.25;font-family:sans-serif;white-space:pre;shape-inside:url(#rect6019);fill:#000000;fill-opacity:1;stroke:none"><tspan
         x="1772.7891"
         y="1360.8626"
         id="tspan42898">©</tspan></text>
    <text
       xml:space="preserve"
       transform="matrix(0.26458333,0,0,0.26458333,259.10152,-42.26135)"
       id="text22093"
       style="font-style:normal;font-weight:normal;font-size:40px;line-height:1.25;font-family:sans-serif;white-space:pre;shape-inside:url(#rect22095);fill:#000000;fill-opacity:1;stroke:none" />
    <text
       xml:space="preserve"
       transform="matrix(0.26458333,0,0,0.26458333,259.10152,-42.26135)"
       id="text29453"
       style="font-style:normal;font-weight:normal;font-size:40px;line-height:1.25;font-family:sans-serif;white-space:pre;shape-inside:url(#rect29455);fill:#000000;fill-opacity:1;stroke:none" />
    <g
       id="g42846"
       transform="translate(4.6257867,4.6257867)">
      <g
         id="g42208"
         transform="translate(1.5579711,185.12643)">
        <path
           d="m -11.031806,45.858492 v -4.71558 c 0,-2.145595 -1.048808,-3.219097 -3.144661,-3.219097 h -1.120422 c -2.049286,0 -3.068814,1.073502 -3.068814,3.219097 v 8.907639 c 0,0.999064 0.194381,1.67287 0.595136,2.021414 0.399697,0.349956 1.048808,0.799395 1.948745,1.347612 l 6.8114327,3.668536 c 1.4968361,0.847372 2.5551694,1.510241 3.1792333,1.984375 0.6244166,0.474133 1.1094861,1.045986 1.4622638,1.721202 0.3485445,0.673806 0.5249334,1.95827 0.5249334,3.855508 v 11.452931 c 0,6.038497 -2.8980694,9.057922 -8.6843302,9.057922 h -4.418189 c -5.73793,0 -8.607072,-3.293533 -8.607072,-9.883422 v -2.6924 h 7.187847 v 2.919941 c 0,2.094795 1.072092,3.141839 3.216275,3.141839 h 1.271764 c 1.897591,0 2.845858,-1.047044 2.845858,-3.141839 v -9.13518 c 0,-0.996244 -0.200025,-1.67005 -0.60078,-2.020005 -0.399698,-0.348545 -1.047398,-0.799395 -1.944512,-1.346553 l -6.814255,-3.818467 c -1.496836,-0.79763 -2.578453,-1.471789 -3.256492,-2.022827 -0.670983,-0.547159 -1.157463,-1.258006 -1.45803,-2.131837 -0.300214,-0.87383 -0.447675,-2.009069 -0.447675,-3.406422 V 40.617626 c 0,-6.137628 2.869142,-9.207853 8.607072,-9.207853 h 4.489803 c 5.7379301,0 8.6127162,3.070225 8.6127162,9.207853 v 5.240866 z"
           style="fill:#62a0ea;fill-opacity:1;fill-rule:nonzero;stroke:none;stroke-width:0.352778"
           id="path375-2" />
        <path
           d="m 25.495863,31.409773 v 43.569464 c 0,6.786739 -2.892425,10.180814 -8.68292,10.180814 h -6.063544 c -5.738283,0 -8.6070719,-3.417358 -8.6070719,-10.256661 V 31.409773 H 9.3301742 V 75.12952 c 0,2.345267 1.0470448,3.516489 3.1404278,3.516489 h 2.921353 c 1.944511,0 2.917472,-1.171222 2.917472,-3.516489 V 31.409773 Z"
           style="fill:#62a0ea;fill-opacity:1;fill-rule:nonzero;stroke:none;stroke-width:0.352778"
           id="path377-0" />
        <path
           d="m 39.422118,57.311421 h 4.714522 c 2.144183,0 3.221567,-1.296811 3.221567,-3.891844 v -11.60286 c 0,-2.595033 -1.077384,-3.892902 -3.221567,-3.892902 H 39.422118 Z M 32.235682,31.409773 h 14.074069 c 5.486047,0 8.231011,3.070225 8.231011,9.209264 v 13.248567 c 0,4.692297 -1.420636,7.661981 -4.266494,8.907639 l 5.014736,22.384808 H 48.478629 L 43.76446,63.45046 h -4.342342 v 21.709591 h -7.186436 z"
           style="fill:#62a0ea;fill-opacity:1;fill-rule:nonzero;stroke:none;stroke-width:0.352778"
           id="path379-1" />
        <path
           d="m 83.814261,31.409773 -8.68433,53.750278 H 66.593062 L 57.910143,31.409773 h 7.110588 l 5.838825,41.024173 5.838472,-41.024173 z"
           style="fill:#62a0ea;fill-opacity:1;fill-rule:nonzero;stroke:none;stroke-width:0.352778"
           id="path381-1" />
        <path
           d="M 87.183642,85.160051 V 31.409773 h 17.815278 v 6.514042 H 94.370078 v 16.318439 h 9.432572 v 6.512631 H 94.370078 V 78.64742 h 10.628842 v 6.512631 z"
           style="fill:#62a0ea;fill-opacity:1;fill-rule:nonzero;stroke:none;stroke-width:0.352778"
           id="path383-2" />
        <path
           d="m 123.55821,85.160051 h -7.1875 V 65.397793 l -8.83073,-33.98802 h 7.11059 l 5.39115,23.356356 h 0.2233 l 4.86587,-23.356356 h 7.112 l -8.68468,33.98802 z"
           style="fill:#62a0ea;fill-opacity:1;fill-rule:nonzero;stroke:none;stroke-width:0.352778"
           id="path385-0" />
        <path
           d="m 143.54694,78.64742 h 5.38656 c 1.89618,0 2.84445,-0.772936 2.84445,-2.321983 V 64.424832 c 0,-2.545292 -1.41958,-3.819878 -4.26509,-3.819878 h -3.96592 z m 0,-24.552627 h 3.36514 c 2.74497,0 4.11762,-1.29928 4.11762,-3.894312 v -8.383764 c 0,-2.595033 -1.07209,-3.894313 -3.21662,-3.894313 h -4.26614 z m 9.50418,3.443817 c 3.94123,1.095728 5.91467,3.14325 5.91467,6.135158 v 13.477169 c 0,5.339997 -2.72168,8.009114 -8.15939,8.009114 H 136.3605 V 31.409773 h 12.27667 c 6.38739,0 9.58038,3.246614 9.58038,9.733139 v 10.329684 c 0,3.09633 -1.7212,4.9911 -5.16643,5.688542 z"
           style="fill:#62a0ea;fill-opacity:1;fill-rule:nonzero;stroke:none;stroke-width:0.352778"
           id="path387-0" />
        <path
           d="m 174.98402,78.64742 h 3.67101 c 1.89618,0 2.84444,-1.048455 2.84444,-3.14325 V 41.068476 c 0,-2.096206 -1.07209,-3.146072 -3.21627,-3.146072 h -3.36938 c -2.09762,0 -3.14607,1.049866 -3.14607,3.146072 V 75.50417 c 0,2.094795 1.07209,3.14325 3.21627,3.14325 m -1.71979,6.512631 c -5.79049,0 -8.68433,-3.042708 -8.68433,-9.132358 V 40.619037 c 0,-6.139039 2.86914,-9.209264 8.61272,-9.209264 h 6.88586 c 5.7397,0 8.60884,3.070225 8.60884,9.209264 v 35.408656 c 0,6.08965 -2.89807,9.132358 -8.68468,9.132358 z"
           style="fill:#62a0ea;fill-opacity:1;fill-rule:nonzero;stroke:none;stroke-width:0.352778"
           id="path389-5" />
        <path
           d="m 214.662,85.160051 h -6.96349 l -4.04177,-20.437475 h -0.14746 l -4.86586,20.437475 h -6.66257 l 6.81003,-27.173413 -6.36235,-26.576865 h 7.03897 l 4.04178,19.839515 h 0.14746 l 4.49509,-19.839515 h 6.65868 l -6.43537,26.576865 z"
           style="fill:#62a0ea;fill-opacity:1;fill-rule:nonzero;stroke:none;stroke-width:0.352778"
           id="path391-8" />
        <path
           d="m 233.00221,45.858492 v -4.71558 c 0,-2.145595 -1.04881,-3.219097 -3.14608,-3.219097 h -1.11901 c -2.05034,0 -3.07022,1.073502 -3.07022,3.219097 v 8.907639 c 0,0.999064 0.19579,1.67287 0.59513,2.021414 0.40111,0.349956 1.04881,0.799395 1.95016,1.347612 l 6.81002,3.668536 c 1.49684,0.847372 2.55517,1.510241 3.17923,1.984375 0.62442,0.474133 1.1109,1.045986 1.46368,1.721202 0.34854,0.673806 0.52493,1.95827 0.52493,3.855508 v 11.452931 c 0,6.038497 -2.89807,9.057922 -8.68433,9.057922 h -4.41819 c -5.73793,0 -8.60707,-3.293533 -8.60707,-9.883422 v -2.6924 h 7.18644 v 2.919941 c 0,2.094795 1.07209,3.141839 3.21768,3.141839 h 1.27177 c 1.89759,0 2.84586,-1.047044 2.84586,-3.141839 v -9.13518 c 0,-0.996244 -0.20003,-1.67005 -0.60078,-2.020005 -0.3997,-0.348545 -1.04881,-0.799395 -1.94452,-1.346553 l -6.81566,-3.818467 c -1.49649,-0.79763 -2.57845,-1.471789 -3.25508,-2.022827 -0.6724,-0.547159 -1.15747,-1.258006 -1.45803,-2.131837 -0.30022,-0.87383 -0.44768,-2.009069 -0.44768,-3.406422 V 40.617626 c 0,-6.137628 2.86914,-9.207853 8.60707,-9.207853 h 4.48981 c 5.73793,0 8.61271,3.070225 8.61271,9.207853 v 5.240866 z"
           style="fill:#62a0ea;fill-opacity:1;fill-rule:nonzero;stroke:none;stroke-width:0.352778"
           id="path393-1" />
      </g>
      <g
         id="g2277"
         inkscape:label="logo 2"
         transform="matrix(0.35277777,0,0,-0.35277777,-244.22434,472.6642)">
        <g
           id="g2281">
          <g
             id="g2283"
             clip-path="url(#clipPath2287)">
            <g
               id="g2289"
               transform="translate(462.1816,634.207)" />
            <g
               id="g2293"
               transform="translate(573.8555,626.5762)" />
            <g
               id="g2297"
               transform="translate(703.229,660.0488)" />
            <g
               id="g2301"
               transform="translate(820.4521,614.2275)" />
            <g
               id="g2305"
               transform="translate(932.4487,620.7041)" />
            <g
               id="g2309"
               transform="translate(1093.7227,690.8457)" />
            <g
               id="g2313"
               transform="translate(1220.8896,594.5293)" />
            <g
               id="g2317"
               transform="translate(1372.502,615.498)" />
            <g
               id="g2321"
               transform="translate(1519.4082,690.8457)" />
            <g
               id="g2325"
               transform="translate(1624.21,621.7969)" />
            <g
               id="g2329"
               transform="translate(733.978,1028.5088)">
              <path
                 d="M 0,0 25.626,22.11 67.108,-33.22 186.928,70.167 212.553,36.339 67.108,-89.157 Z m 266.937,106.281 12.276,-360.171 233.35,100.048 -27.932,43.17 c -14.605,-10.557 -31.774,-16.762 -50.209,-16.762 -52.603,0 -95.393,49.684 -95.393,110.762 0,61.07 42.79,110.751 95.393,110.751 52.596,0 95.386,-49.681 95.386,-110.751 0,-21.404 -5.344,-41.338 -14.433,-58.296 l 59.699,-52.073 0.966,0.413 V 217.778 L 268.791,136.309 576.04,243.339 266.937,375.864 -42.166,243.339 268.791,136.309 -42.166,217.778 V -126.628 L 254.661,-253.89 Z"
                 style="fill:#62a0ea;fill-opacity:1;fill-rule:nonzero;stroke:none"
                 id="path2331" />
            </g>
            <g
               id="g2333"
               transform="translate(1111.7393,1011.8364)">
              <path
                 d="m 0,0 c 0,-36.276 25.419,-65.789 56.661,-65.789 31.235,0 56.653,29.513 56.653,65.789 0,36.267 -25.418,65.78 -56.653,65.78 C 25.419,65.78 0,36.267 0,0"
                 style="fill:#62a0ea;fill-opacity:1;fill-rule:nonzero;stroke:none"
                 id="path2335" />
            </g>
          </g>
        </g>
      </g>
      <text
         xml:space="preserve"
         transform="matrix(0.26458333,0,0,0.26458333,-275.8931,111.68026)"
         id="text24475"
         style="font-style:normal;font-variant:normal;font-weight:normal;font-stretch:normal;font-size:166.667px;line-height:1.25;font-family:sans-serif;-inkscape-font-specification:'sans-serif, Normal';font-variant-ligatures:normal;font-variant-caps:normal;font-variant-numeric:normal;font-variant-east-asian:normal;white-space:pre;shape-inside:url(#rect24477);fill:#62a0ea;fill-opacity:1;stroke:none"><tspan
           x="1720.8672"
           y="780.07294"
           id="tspan42900">©</tspan></text>
      <text
         xml:space="preserve"
         transform="matrix(0.26458333,0,0,0.26458333,-435.01512,316.79797)"
         id="text34367"
         style="font-style:normal;font-weight:normal;font-size:200px;line-height:1.25;font-family:sans-serif;white-space:pre;shape-inside:url(#rect34369);fill:#62a0ea;fill-opacity:1;stroke:none"><tspan
           x="1799.9883"
           y="24.225829"
           id="tspan42902">2022</tspan></text>
    </g>
  </g>
</svg>
