<?xml version="1.0" encoding="UTF-8" standalone="no"?>
<!-- Created with Inkscape (http://www.inkscape.org/) -->

<svg
   width="469.19955mm"
   height="126.79321mm"
   viewBox="0 0 469.19955 126.79321"
   version="1.1"
   id="svg324"
   inkscape:export-filename="C:\Users\ADMIN\Documents\CSC 496\Site files\My edit logo\Edit-logo-1(PNG).png"
   inkscape:export-xdpi="96"
   inkscape:export-ydpi="96"
   inkscape:version="1.1.2 (b8e25be833, 2022-02-05)"
   sodipodi:docname="Edit-logo-1(SVG).svg"
   xmlns:inkscape="http://www.inkscape.org/namespaces/inkscape"
   xmlns:sodipodi="http://sodipodi.sourceforge.net/DTD/sodipodi-0.dtd"
   xmlns="http://www.w3.org/2000/svg"
   xmlns:svg="http://www.w3.org/2000/svg">
  <sodipodi:namedview
     id="namedview326"
     pagecolor="#ffffff"
     bordercolor="#666666"
     borderopacity="1.0"
     inkscape:pageshadow="2"
     inkscape:pageopacity="0.0"
     inkscape:pagecheckerboard="0"
     inkscape:document-units="mm"
     showgrid="false"
     fit-margin-top="0"
     fit-margin-left="0"
     fit-margin-right="0"
     fit-margin-bottom="0"
     inkscape:zoom="0.40444725"
     inkscape:cx="1123.7559"
     inkscape:cy="210.16338"
     inkscape:window-width="1366"
     inkscape:window-height="705"
     inkscape:window-x="-8"
     inkscape:window-y="-8"
     inkscape:window-maximized="1"
     inkscape:current-layer="layer1"
     height="117.79321mm" />
  <defs
     id="defs321">
    <clipPath
       clipPathUnits="userSpaceOnUse"
       id="clipPath369">
      <path
         d="M 0,0 H 1311 V 334 H 0 Z"
         id="path367" />
    </clipPath>
  </defs>
  <g
     inkscape:label="Layer 1"
     inkscape:groupmode="layer"
     id="layer1"
     transform="translate(0.17246546,-145.20913)">
    <g
       id="g355"
       transform="matrix(0.35277777,0,0,0.35277777,3.0984597,149.78843)">
      <path
         d="M 68.758,138.41 V 100.68 L 177.324,88.301 239.57,0 V 333.902 L 68.758,273.312 v -31.593 l 115.804,31.867 V 250.297 L 68.758,224.758 v -26.211 l 115.804,15.758 V 191.012 L 68.758,181.586 v -26.215 l 115.804,-0.351 v -23.293 z"
         style="fill:#1c71d8;fill-opacity:1;fill-rule:nonzero;stroke:none"
         id="path357" />
      <path
         d="M 59.352,55.73 24.777,105.695 177.324,88.301 90.836,117.25 0,120.148 Z"
         style="fill:#1c71d8;fill-opacity:1;fill-rule:nonzero;stroke:none"
         id="path359" />
      <g
         id="g361">
        <g
           id="g363">
          <g
             id="g365"
             clip-path="url(#clipPath369)">
            <g
               id="g371">
              <path
                 d="m 449.75,143.766 c -1.09,4.3 -2.5,8.035 -4.273,11.218 -1.789,3.227 -3.657,6.2 -5.622,8.938 -1.984,2.762 -3.917,5.363 -5.781,7.781 -1.894,2.461 -3.437,4.961 -4.629,7.5 -1.195,2.574 -1.793,5.371 -1.793,8.375 l -35.14,1.738 c 0,-5.16 0.57,-9.812 1.738,-13.949 1.164,-4.129 2.617,-7.797 4.367,-11.015 1.738,-3.196 3.578,-6.075 5.516,-8.629 1.922,-2.532 3.715,-4.914 5.379,-7.172 1.652,-2.231 3.004,-4.473 4.074,-6.703 1.062,-2.219 1.598,-4.555 1.598,-7.004 0,-3.754 -1.094,-6.703 -3.286,-8.879 -2.218,-2.199 -4.941,-3.469 -8.21,-3.805 -3.782,-0.39 -7.399,0.766 -10.817,3.516 -3.473,2.793 -6.254,6.91 -8.273,12.351 l -36.907,-27.593 c 5.606,-12.817 13.856,-22.379 24.485,-28.704 10.164,-6.062 22.535,-7.429 36.734,-4.472 8.863,1.847 16.449,5.14 22.871,9.82 6.211,4.535 11.016,10.324 14.492,17.356 3.411,6.914 5.086,15.023 5.086,24.433 0,5.668 -0.535,10.629 -1.609,14.899 m -23.277,101.632 c -3.887,6.426 -9.075,10.36 -15.68,11.747 -6.688,1.398 -12.32,-0.434 -16.813,-5.606 -4.582,-5.269 -6.914,-12.207 -6.914,-20.734 0,-8.692 2.332,-16.25 6.914,-22.559 4.493,-6.176 10.125,-9.461 16.813,-9.945 6.605,-0.477 11.793,1.863 15.68,6.957 3.808,5 5.683,11.39 5.683,19.219 0,7.675 -1.875,14.621 -5.683,20.921 M 262.73,0 V 333.902 L 529.082,280.914 V 52.988 Z"
                 style="fill:#62a0ea;fill-opacity:1;fill-rule:nonzero;stroke:none"
                 id="path373" />
              <path
                 d="M 598.047,103.215 V 89.848 c 0,-6.082 -2.973,-9.125 -8.914,-9.125 h -3.176 c -5.809,0 -8.699,3.043 -8.699,9.125 v 25.25 c 0,2.832 0.551,4.742 1.687,5.73 1.133,0.992 2.973,2.266 5.524,3.82 l 19.308,10.399 c 4.243,2.402 7.243,4.281 9.012,5.625 1.77,1.344 3.145,2.965 4.145,4.879 0.988,1.91 1.488,5.551 1.488,10.929 v 32.465 c 0,17.117 -8.215,25.676 -24.617,25.676 h -12.524 c -16.265,0 -24.398,-9.336 -24.398,-28.016 v -7.632 h 20.375 v 8.277 c 0,5.938 3.039,8.906 9.117,8.906 h 3.605 c 5.379,0 8.067,-2.968 8.067,-8.906 v -25.895 c 0,-2.824 -0.567,-4.734 -1.703,-5.726 -1.133,-0.988 -2.969,-2.266 -5.512,-3.817 l -19.316,-10.824 c -4.243,-2.261 -7.309,-4.172 -9.231,-5.734 -1.902,-1.551 -3.281,-3.566 -4.133,-6.043 -0.851,-2.477 -1.269,-5.695 -1.269,-9.656 V 88.359 c 0,-17.398 8.133,-26.101 24.398,-26.101 h 12.727 c 16.265,0 24.414,8.703 24.414,26.101 v 14.856 z"
                 style="fill:#262626;fill-opacity:1;fill-rule:nonzero;stroke:none"
                 id="path375" />
              <path
                 d="m 701.59,62.258 v 123.504 c 0,19.238 -8.199,28.859 -24.613,28.859 h -17.188 c -16.266,0 -24.398,-9.687 -24.398,-29.074 V 62.258 h 20.375 v 123.93 c 0,6.648 2.968,9.968 8.902,9.968 h 8.281 c 5.512,0 8.27,-3.32 8.27,-9.968 V 62.258 Z"
                 style="fill:#262626;fill-opacity:1;fill-rule:nonzero;stroke:none"
                 id="path377" />
              <path
                 d="m 741.066,135.68 h 13.364 c 6.078,0 9.132,-3.676 9.132,-11.032 v -32.89 c 0,-7.356 -3.054,-11.035 -9.132,-11.035 H 741.066 Z M 720.695,62.258 h 39.895 c 15.551,0 23.332,8.703 23.332,26.105 v 37.555 c 0,13.301 -4.027,21.719 -12.094,25.25 l 14.215,63.453 h -19.305 l -13.363,-61.539 h -12.309 v 61.539 h -20.371 z"
                 style="fill:#262626;fill-opacity:1;fill-rule:nonzero;stroke:none"
                 id="path379" />
              <path
                 d="M 866.902,62.258 842.285,214.621 H 818.086 L 793.473,62.258 h 20.156 L 830.18,178.547 846.73,62.258 Z"
                 style="fill:#262626;fill-opacity:1;fill-rule:nonzero;stroke:none"
                 id="path381" />
              <path
                 d="M 876.453,214.621 V 62.258 h 50.5 v 18.465 h -30.129 v 46.257 h 26.738 v 18.461 h -26.738 v 50.719 h 30.129 v 18.461 z"
                 style="fill:#262626;fill-opacity:1;fill-rule:nonzero;stroke:none"
                 id="path383" />
              <path
                 d="M 979.562,214.621 H 959.188 V 158.602 L 934.156,62.258 h 20.156 l 15.282,66.207 h 0.633 L 984.02,62.258 h 20.16 l -24.618,96.344 z"
                 style="fill:#262626;fill-opacity:1;fill-rule:nonzero;stroke:none"
                 id="path385" />
              <path
                 d="m 1036.223,196.16 h 15.269 c 5.375,0 8.063,-2.191 8.063,-6.582 v -33.734 c 0,-7.215 -4.024,-10.828 -12.09,-10.828 h -11.242 z m 0,-69.598 h 9.539 c 7.781,0 11.672,-3.683 11.672,-11.039 V 91.758 c 0,-7.356 -3.039,-11.039 -9.118,-11.039 h -12.093 z m 26.941,9.762 c 11.172,3.106 16.766,8.91 16.766,17.391 v 38.203 c 0,15.137 -7.715,22.703 -23.129,22.703 h -40.949 V 62.258 h 34.8 c 18.106,0 27.157,9.203 27.157,27.59 v 29.281 c 0,8.777 -4.879,14.148 -14.645,16.125 z"
                 style="fill:#1c71d8;fill-opacity:1;fill-rule:nonzero;stroke:none"
                 id="path387" />
              <path
                 d="m 1125.336,196.16 h 10.406 c 5.375,0 8.063,-2.972 8.063,-8.91 V 89.637 c 0,-5.942 -3.039,-8.918 -9.117,-8.918 h -9.551 c -5.946,0 -8.918,2.976 -8.918,8.918 v 97.613 c 0,5.938 3.039,8.91 9.117,8.91 m -4.875,18.461 c -16.414,0 -24.617,-8.625 -24.617,-25.887 V 88.363 c 0,-17.402 8.133,-26.105 24.414,-26.105 h 19.519 c 16.27,0 24.403,8.703 24.403,26.105 v 100.371 c 0,17.262 -8.215,25.887 -24.618,25.887 z"
                 style="fill:#1c71d8;fill-opacity:1;fill-rule:nonzero;stroke:none"
                 id="path389" />
              <path
                 d="m 1237.809,214.621 h -19.739 l -11.457,-57.933 h -0.418 l -13.793,57.933 h -18.886 l 19.304,-77.027 -18.035,-75.336 h 19.953 l 11.457,56.238 h 0.418 l 12.742,-56.238 h 18.875 l -18.242,75.336 z"
                 style="fill:#1c71d8;fill-opacity:1;fill-rule:nonzero;stroke:none"
                 id="path391" />
              <path
                 d="M 1289.797,103.215 V 89.848 c 0,-6.082 -2.973,-9.125 -8.918,-9.125 h -3.172 c -5.812,0 -8.703,3.043 -8.703,9.125 v 25.25 c 0,2.832 0.555,4.742 1.687,5.73 1.137,0.992 2.973,2.266 5.528,3.82 l 19.304,10.399 c 4.243,2.402 7.243,4.281 9.012,5.625 1.77,1.344 3.149,2.965 4.149,4.879 0.988,1.91 1.488,5.551 1.488,10.929 v 32.465 c 0,17.117 -8.215,25.676 -24.617,25.676 h -12.524 c -16.265,0 -24.398,-9.336 -24.398,-28.016 v -7.632 h 20.371 v 8.277 c 0,5.938 3.039,8.906 9.121,8.906 h 3.605 c 5.379,0 8.067,-2.968 8.067,-8.906 v -25.895 c 0,-2.824 -0.567,-4.734 -1.703,-5.726 -1.133,-0.988 -2.973,-2.266 -5.512,-3.817 l -19.32,-10.824 c -4.242,-2.261 -7.309,-4.172 -9.227,-5.734 -1.906,-1.551 -3.281,-3.566 -4.133,-6.043 -0.851,-2.477 -1.269,-5.695 -1.269,-9.656 V 88.359 c 0,-17.398 8.133,-26.101 24.398,-26.101 h 12.727 c 16.265,0 24.414,8.703 24.414,26.101 v 14.856 z"
                 style="fill:#1c71d8;fill-opacity:1;fill-rule:nonzero;stroke:none"
                 id="path393" />
              <path
                 d="m 572.645,266.004 c 1.293,0 2.476,-0.219 3.554,-0.672 1.086,-0.457 2.039,-1.098 2.863,-1.937 0.825,-0.833 1.465,-1.813 1.915,-2.922 0.453,-1.11 0.679,-2.352 0.679,-3.719 0,-1.375 -0.226,-2.617 -0.679,-3.731 -0.45,-1.109 -1.09,-2.082 -1.915,-2.918 -0.824,-0.839 -1.777,-1.484 -2.863,-1.937 -1.078,-0.445 -2.261,-0.676 -3.554,-0.676 -1.29,0 -2.485,0.231 -3.579,0.676 -1.097,0.453 -2.054,1.098 -2.863,1.937 -0.805,0.836 -1.437,1.809 -1.891,2.918 -0.453,1.114 -0.679,2.356 -0.679,3.731 0,1.367 0.226,2.609 0.679,3.719 0.454,1.109 1.086,2.089 1.891,2.922 0.809,0.839 1.766,1.48 2.863,1.937 1.094,0.453 2.289,0.672 3.579,0.672 m 0.043,5.641 c -2.278,0 -4.376,-0.368 -6.293,-1.11 -1.926,-0.738 -3.594,-1.785 -5.024,-3.133 -1.43,-1.34 -2.535,-2.918 -3.316,-4.726 -0.782,-1.813 -1.172,-3.785 -1.172,-5.922 0,-2.172 0.39,-4.152 1.172,-5.949 0.781,-1.797 1.886,-3.367 3.316,-4.711 1.43,-1.344 3.094,-2.391 4.996,-3.129 1.906,-0.738 4,-1.11 6.278,-1.11 2.277,0 4.371,0.368 6.273,1.09 1.906,0.727 3.578,1.762 5.004,3.106 1.426,1.344 2.527,2.926 3.308,4.734 0.786,1.813 1.176,3.797 1.176,5.969 0,2.137 -0.39,4.117 -1.176,5.937 -0.781,1.832 -1.882,3.414 -3.308,4.758 -1.426,1.344 -3.098,2.379 -5.004,3.102 -1.902,0.734 -3.984,1.094 -6.23,1.094"
                 style="fill:#262626;fill-opacity:1;fill-rule:nonzero;stroke:none"
                 id="path395" />
              <path
                 d="m 603.297,271.152 v -28.804 h 5.519 l 16.989,20.738 h -2.672 v -20.738 h 6.582 v 28.804 h -5.512 l -16.996,-20.738 h 2.672 v 20.738 z"
                 style="fill:#262626;fill-opacity:1;fill-rule:nonzero;stroke:none"
                 id="path397" />
              <path
                 d="m 646.418,271.152 v -28.804 h 6.711 v 23.371 h 14.359 v 5.433 z"
                 style="fill:#262626;fill-opacity:1;fill-rule:nonzero;stroke:none"
                 id="path399" />
              <path
                 d="m 681.148,242.348 h 6.711 v 28.805 h -6.711 z"
                 style="fill:#262626;fill-opacity:1;fill-rule:nonzero;stroke:none"
                 id="path401" />
              <path
                 d="m 704.52,271.152 v -28.804 h 5.519 l 16.988,20.738 h -2.672 v -20.738 h 6.586 v 28.804 h -5.515 L 708.43,250.414 h 2.675 v 20.738 z"
                 style="fill:#262626;fill-opacity:1;fill-rule:nonzero;stroke:none"
                 id="path403" />
              <path
                 d="m 753.777,253.906 h 13.864 v 5.231 h -13.864 z m 0.493,11.899 h 15.679 v 5.347 h -22.308 v -28.804 h 21.773 v 5.347 H 754.27 Z"
                 style="fill:#262626;fill-opacity:1;fill-rule:nonzero;stroke:none"
                 id="path405" />
              <path
                 d="m 816.16,271.645 c -2.308,0 -4.519,-0.313 -6.648,-0.93 -2.125,-0.61 -3.832,-1.418 -5.121,-2.403 l 2.257,-5.019 c 1.211,0.875 2.661,1.598 4.368,2.156 1.703,0.571 3.418,0.844 5.144,0.844 1.313,0 2.379,-0.137 3.188,-0.406 0.804,-0.278 1.406,-0.641 1.789,-1.094 0.383,-0.453 0.574,-0.977 0.574,-1.582 0,-0.77 -0.301,-1.383 -0.902,-1.828 -0.606,-0.453 -1.407,-0.828 -2.411,-1.117 -1.003,-0.286 -2.093,-0.563 -3.273,-0.821 -1.18,-0.257 -2.363,-0.574 -3.555,-0.945 -1.191,-0.375 -2.289,-0.863 -3.293,-1.484 -1.004,-0.618 -1.797,-1.422 -2.386,-2.426 -0.59,-1.004 -0.879,-2.258 -0.879,-3.766 0,-1.644 0.433,-3.148 1.308,-4.504 0.879,-1.363 2.215,-2.441 4.012,-3.254 1.797,-0.808 4.055,-1.211 6.773,-1.211 1.813,0 3.598,0.219 5.368,0.657 1.773,0.441 3.312,1.07 4.629,1.89 l -2.098,5.02 c -1.285,-0.734 -2.617,-1.293 -3.992,-1.664 -1.371,-0.371 -2.688,-0.555 -3.95,-0.555 -1.316,0 -2.371,0.145 -3.167,0.43 -0.793,0.289 -1.379,0.679 -1.754,1.172 -0.364,0.5 -0.551,1.047 -0.551,1.648 0,0.77 0.301,1.387 0.906,1.852 0.606,0.468 1.399,0.832 2.383,1.093 0.992,0.258 2.09,0.52 3.293,0.782 1.211,0.258 2.402,0.578 3.582,0.965 1.18,0.382 2.266,0.871 3.25,1.464 0.988,0.586 1.789,1.379 2.41,2.383 0.617,1.004 0.926,2.246 0.926,3.727 0,1.613 -0.449,3.097 -1.336,4.441 -0.899,1.34 -2.246,2.426 -4.055,3.254 -1.812,0.82 -4.078,1.231 -6.789,1.231"
                 style="fill:#262626;fill-opacity:1;fill-rule:nonzero;stroke:none"
                 id="path407" />
              <path
                 d="m 855.574,271.645 c -4.086,0 -7.277,-1.137 -9.586,-3.415 -2.304,-2.277 -3.457,-5.542 -3.457,-9.792 v -16.09 h 6.711 v 15.925 c 0,2.719 0.559,4.684 1.684,5.903 1.129,1.222 2.687,1.828 4.691,1.828 2.031,0 3.61,-0.606 4.731,-1.828 1.129,-1.219 1.691,-3.184 1.691,-5.903 v -15.925 h 6.539 v 16.09 c 0,4.25 -1.152,7.515 -3.457,9.792 -2.301,2.278 -5.484,3.415 -9.547,3.415"
                 style="fill:#262626;fill-opacity:1;fill-rule:nonzero;stroke:none"
                 id="path409" />
              <path
                 d="m 903.426,271.152 -7.242,-10.453 h 7.16 l 7.242,10.453 z m -11.645,-10.207 -3.043,-3.164 h 8.438 c 2.023,0 3.562,-0.441 4.605,-1.32 1.047,-0.875 1.563,-2.113 1.563,-3.703 0,-1.586 -0.516,-2.817 -1.563,-3.68 -1.043,-0.867 -2.582,-1.301 -4.605,-1.301 h -8.438 l 3.043,-3.164 z m -6.711,10.207 v -28.804 h 12.473 c 2.578,0 4.797,0.422 6.664,1.254 1.867,0.839 3.305,2.039 4.32,3.601 1.016,1.567 1.528,3.414 1.528,5.555 0,2.164 -0.512,4.027 -1.528,5.578 -1.015,1.551 -2.453,2.73 -4.32,3.539 -1.867,0.805 -4.086,1.211 -6.664,1.211 h -8.805 l 3.043,-2.879 v 10.945 z"
                 style="fill:#262626;fill-opacity:1;fill-rule:nonzero;stroke:none"
                 id="path411" />
              <path
                 d="m 933.84,271.152 -12.469,-28.804 h 7.238 l 10.864,25.511 h -4.239 l 11.028,-25.511 h 6.625 l -12.469,28.804 z"
                 style="fill:#262626;fill-opacity:1;fill-rule:nonzero;stroke:none"
                 id="path413" />
              <path
                 d="m 971.285,253.906 h 13.86 v 5.231 h -13.86 z m 0.488,11.899 h 15.684 v 5.347 h -22.309 v -28.804 h 21.77 v 5.347 h -15.145 z"
                 style="fill:#262626;fill-opacity:1;fill-rule:nonzero;stroke:none"
                 id="path415" />
              <path
                 d="m 1009.512,271.152 v -11.769 l 1.519,4.031 -12.715,-21.066 h 7.122 l 9.707,16.132 h -4.071 l 9.75,-16.132 h 6.504 l -12.633,21.066 1.52,-4.031 v 11.769 z"
                 style="fill:#262626;fill-opacity:1;fill-rule:nonzero;stroke:none"
                 id="path417" />
              <path
                 d="M 1068.188,266.133 H 1076 c 1.703,0 3.008,-0.293 3.91,-0.867 0.91,-0.575 1.363,-1.469 1.363,-2.672 0,-1.239 -0.453,-2.141 -1.363,-2.719 -0.902,-0.574 -2.207,-0.863 -3.91,-0.863 h -8.305 v -4.852 h 7.114 c 1.621,0 2.863,-0.285 3.726,-0.844 0.863,-0.562 1.293,-1.421 1.293,-2.574 0,-1.156 -0.43,-2 -1.293,-2.547 -0.863,-0.55 -2.105,-0.828 -3.726,-0.828 h -6.621 z m -6.629,5.019 v -28.804 h 14.078 c 3.617,0 6.336,0.687 8.164,2.054 1.824,1.375 2.738,3.188 2.738,5.438 0,1.508 -0.371,2.812 -1.117,3.93 -0.738,1.109 -1.758,1.964 -3.063,2.566 -1.3,0.605 -2.777,0.91 -4.421,0.91 l 0.781,-1.73 c 1.808,0 3.406,0.3 4.793,0.902 1.386,0.605 2.48,1.484 3.273,2.637 0.797,1.152 1.192,2.566 1.192,4.238 0,2.465 -0.969,4.395 -2.918,5.785 -1.95,1.379 -4.821,2.074 -8.606,2.074 z"
                 style="fill:#262626;fill-opacity:1;fill-rule:nonzero;stroke:none"
                 id="path419" />
              <path
                 d="m 1115.711,271.645 c -4.086,0 -7.277,-1.137 -9.586,-3.415 -2.305,-2.277 -3.457,-5.542 -3.457,-9.792 v -16.09 h 6.711 v 15.925 c 0,2.719 0.559,4.684 1.683,5.903 1.129,1.222 2.688,1.828 4.692,1.828 2.031,0 3.605,-0.606 4.73,-1.828 1.129,-1.219 1.692,-3.184 1.692,-5.903 v -15.925 h 6.539 v 16.09 c 0,4.25 -1.153,7.515 -3.457,9.792 -2.301,2.278 -5.485,3.415 -9.547,3.415"
                 style="fill:#262626;fill-opacity:1;fill-rule:nonzero;stroke:none"
                 id="path421" />
              <path
                 d="m 1145.207,242.348 h 6.711 v 28.805 h -6.711 z"
                 style="fill:#262626;fill-opacity:1;fill-rule:nonzero;stroke:none"
                 id="path423" />
              <path
                 d="m 1168.582,271.152 v -28.804 h 6.711 v 23.371 h 14.363 v 5.433 z"
                 style="fill:#262626;fill-opacity:1;fill-rule:nonzero;stroke:none"
                 id="path425" />
              <path
                 d="m 1210.02,265.723 h 6.05 c 1.914,0 3.586,-0.368 5,-1.094 1.414,-0.723 2.512,-1.77 3.293,-3.129 0.782,-1.355 1.172,-2.938 1.172,-4.746 0,-1.844 -0.39,-3.434 -1.172,-4.777 -0.781,-1.344 -1.879,-2.375 -3.293,-3.11 -1.414,-0.722 -3.086,-1.09 -5,-1.09 h -6.05 z m -6.711,5.429 v -28.804 h 13.089 c 3.125,0 5.883,0.597 8.266,1.789 2.391,1.195 4.258,2.863 5.602,5.023 1.343,2.149 2.011,4.684 2.011,7.594 0,2.906 -0.668,5.434 -2.011,7.586 -1.344,2.156 -3.211,3.828 -5.602,5.019 -2.383,1.192 -5.141,1.793 -8.266,1.793 z"
                 style="fill:#262626;fill-opacity:1;fill-rule:nonzero;stroke:none"
                 id="path427" />
              <path
                 d="m 1253.312,253.906 h 13.864 v 5.231 h -13.864 z m 0.493,11.899 h 15.679 v 5.347 h -22.308 v -28.804 h 21.769 v 5.347 h -15.14 z"
                 style="fill:#262626;fill-opacity:1;fill-rule:nonzero;stroke:none"
                 id="path429" />
              <path
                 d="m 1303.012,271.152 -7.242,-10.453 h 7.16 l 7.242,10.453 z m -11.645,-10.207 -3.043,-3.164 h 8.438 c 2.023,0 3.562,-0.441 4.605,-1.32 1.043,-0.875 1.563,-2.113 1.563,-3.703 0,-1.586 -0.52,-2.817 -1.563,-3.68 -1.043,-0.867 -2.582,-1.301 -4.605,-1.301 h -8.438 l 3.043,-3.164 z m -6.711,10.207 v -28.804 h 12.473 c 2.578,0 4.797,0.422 6.664,1.254 1.867,0.839 3.305,2.039 4.32,3.601 1.016,1.567 1.528,3.414 1.528,5.555 0,2.164 -0.512,4.027 -1.528,5.578 -1.015,1.551 -2.453,2.73 -4.32,3.539 -1.867,0.805 -4.086,1.211 -6.664,1.211 h -8.805 l 3.043,-2.879 v 10.945 z"
                 style="fill:#262626;fill-opacity:1;fill-rule:nonzero;stroke:none"
                 id="path431" />
            </g>
          </g>
        </g>
      </g>
    </g>
  </g>
</svg>
